<?xml version="1.0" encoding="UTF-8"?><svg id="Layer_1" xmlns="http://www.w3.org/2000/svg" viewBox="0 0 165.64 82.94"><path d="M41.48,0h82.68c22.91,0,41.48,18.57,41.48,41.47h0c0,22.91-18.57,41.47-41.48,41.47H41.48C18.57,82.94,0,64.37,0,41.47h0C0,18.56,18.57,0,41.48,0Z" fill="#7aa47c"/><path d="M42.34,6.97h81.07c19.06,0,34.51,15.45,34.51,34.51h0c0,19.06-15.45,34.51-34.51,34.51H42.34c-19.06,0-34.51-15.45-34.51-34.51h0C7.83,22.42,23.28,6.97,42.34,6.97Z" fill="#fff"/><path d="M44.43,12.22c-16.07,0-29.1,13.03-29.1,29.1s13.03,29.1,29.1,29.1,29.1-13.03,29.1-29.1-13.03-29.1-29.1-29.1ZM44.43,63.46c-12.23,0-22.15-9.92-22.15-22.15s9.92-22.15,22.15-22.15,22.15,9.92,22.15,22.15-9.92,22.15-22.15,22.15Z" fill="#7aa47c"/><circle cx="44.41" cy="41.32" r="22.15" fill="#b3e0af"/><circle cx="37.37" cy="33.95" r="3.17" fill="#7aa47c"/><circle cx="51.44" cy="33.95" r="3.17" fill="#7aa47c"/><path d="M55.4,46.45c-2.17,3.29-6.32,5.52-11.09,5.52s-8.68-2.1-10.9-5.23" fill="none" stroke="#7aa47c" stroke-linecap="round" stroke-miterlimit="10" stroke-width="6"/><path d="M121.56,12.22c-16.07,0-29.1,13.03-29.1,29.1s13.03,29.1,29.1,29.1,29.1-13.03,29.1-29.1-13.03-29.1-29.1-29.1h0ZM121.56,63.46c-12.23,0-22.15-9.92-22.15-22.15s9.92-22.15,22.15-22.15,22.15,9.92,22.15,22.15-9.92,22.15-22.15,22.15h0Z" fill="#7aa47c"/><circle cx="121.53" cy="41.32" r="22.15" fill="#b3e0af"/><circle cx="114.5" cy="33.95" r="3.17" fill="#7aa47c"/><circle cx="128.57" cy="33.95" r="3.17" fill="#7aa47c"/><path d="M132.53,46.45c-2.17,3.29-6.32,5.52-11.09,5.52s-8.68-2.1-10.9-5.23" fill="none" stroke="#7aa47c" stroke-linecap="round" stroke-miterlimit="10" stroke-width="6"/></svg>