<?xml version="1.0" encoding="UTF-8"?><svg id="Layer_1" xmlns="http://www.w3.org/2000/svg" viewBox="0 0 309.49 129.4"><path d="M33.42,108.67v12.77h4.71v7.22h-14.74v-19.18c0-1.47-.22-2.54-.67-3.21s-1.2-1-2.25-1c-1.91,0-3.83.69-5.76,2.06v14.11h4.89v7.22H0v-7.22h4.77v-16.8H0v-7.34h14.71v2.95c2.98-2.25,6.05-3.37,9.19-3.37s5.49.99,7.1,2.97,2.42,4.92,2.42,8.82h0Z" fill="#fff"/><path d="M69.06,109.83v11.61h5.07v7.22h-15.04v-2.45c-2.84,1.95-5.69,2.92-8.53,2.92-3.44,0-6.2-.88-8.26-2.66-2.07-1.77-3.1-4.16-3.1-7.16,0-3.18,1.16-5.73,3.48-7.65s5.4-2.88,9.23-2.88c1.33,0,2.52.14,3.57.43,1.05.29,2.25.78,3.62,1.48v-2.51c0-1.59-.5-2.86-1.49-3.82s-2.49-1.43-4.48-1.43c-2.17,0-4.09.83-5.76,2.51l-8.06-1.46c2.45-4.93,7.5-7.4,15.16-7.4,5.25,0,9,1.08,11.23,3.24s3.36,5.5,3.36,10.01h0ZM52.8,122.9c1.79,0,3.89-1.07,6.3-3.22v-2.8c-2.15-1.39-4.12-2.09-5.91-2.09-1.43,0-2.53.34-3.28,1.01-.76.68-1.13,1.64-1.13,2.89,0,2.8,1.34,4.21,4.03,4.21h-.01Z" fill="#fff"/><path d="M171.98,115.08h-23.39c.24,2.41,1.07,4.31,2.49,5.71s3.26,2.1,5.5,2.1c2.49,0,4.91-1.23,7.28-3.7l7.76,2.51c-1.71,2.57-3.83,4.49-6.36,5.77s-5.52,1.92-8.98,1.92-6.52-.65-9.17-1.95c-2.66-1.3-4.71-3.15-6.18-5.54-1.46-2.39-2.19-5.19-2.19-8.41s.76-6.07,2.28-8.65c1.52-2.59,3.58-4.61,6.18-6.07,2.6-1.46,5.42-2.19,8.46-2.19,3.3,0,6.18.76,8.62,2.28,2.45,1.52,4.33,3.68,5.65,6.47,1.32,2.79,2,6.04,2.04,9.74h.01ZM155.18,103.23c-1.79,0-3.23.52-4.31,1.55s-1.77,2.62-2.04,4.74h13.07c-.28-1.87-1.04-3.39-2.28-4.55s-2.72-1.75-4.43-1.75h-.01Z" fill="#fff"/><path d="M193.45,98.4v-1.1h7.13v9.19h-7.13c-.62-2.21-2.9-3.31-6.86-3.31-2.84,0-4.27.8-4.27,2.39,0,.7.38,1.21,1.13,1.55.76.34,1.86.62,3.31.83,4.08.52,7.29,1.26,9.64,2.22s3.99,2.16,4.92,3.58,1.4,3.15,1.4,5.18c0,3.3-1.13,5.87-3.39,7.71s-5.33,2.76-9.2,2.76-6.35-.76-7.7-2.27v1.52h-7.28v-10.8h7.28c.2,1.49.92,2.67,2.16,3.52,1.24.86,2.78,1.28,4.61,1.28s3.11-.2,3.97-.61c.85-.41,1.28-1.12,1.28-2.13,0-.7-.18-1.24-.54-1.63s-1.05-.73-2.07-1.03-2.59-.64-4.7-1.01c-4.69-.74-8.07-1.92-10.13-3.57-2.06-1.64-3.09-3.85-3.09-6.64s1.07-5.08,3.21-6.71,4.96-2.45,8.46-2.45c2.82,0,5.44.51,7.85,1.52h0Z" fill="#fff"/><path d="M309.49,115.08h-23.39c.24,2.41,1.07,4.31,2.49,5.71,1.42,1.4,3.26,2.1,5.5,2.1,2.49,0,4.91-1.23,7.28-3.7l7.76,2.51c-1.71,2.57-3.83,4.49-6.36,5.77s-5.52,1.92-8.98,1.92-6.52-.65-9.17-1.95c-2.66-1.3-4.71-3.15-6.18-5.54s-2.19-5.19-2.19-8.41.76-6.07,2.28-8.65c1.52-2.59,3.58-4.61,6.18-6.07s5.42-2.19,8.46-2.19c3.3,0,6.18.76,8.62,2.28,2.45,1.52,4.33,3.68,5.65,6.47s2,6.04,2.04,9.74h.01ZM292.69,103.23c-1.79,0-3.23.52-4.31,1.55s-1.77,2.62-2.04,4.74h13.07c-.28-1.87-1.04-3.39-2.28-4.55s-2.72-1.75-4.43-1.75h-.01Z" fill="#fff"/><path d="M133.14,121.44v-12.26c0-3.02-.36-5.43-1.07-7.22-.72-1.79-1.84-3.08-3.37-3.88-1.53-.79-3.58-1.19-6.15-1.19-4.36,0-8.57,1.42-12.65,4.27-2.23-2.84-5.36-4.27-9.4-4.27-3.46,0-6.84,1.01-10.14,3.04v-2.63h-14.58v7.34h4.55v16.8h-4.55v7.22h19.71v-7.22h-5.13v-13.93c2.88-1.37,5.29-2.06,7.22-2.06,2.72,0,4.09,1.67,4.09,5.01v18.2h15.16v-7.22h-5.13v-13.93c2.76-1.37,5.16-2.06,7.19-2.06,2.82,0,4.24,1.56,4.24,4.68v18.53h15.22v-7.22h-5.21Z" fill="#fff"/><rect x="237.82" y="121.44" width=".3" height="7.22" fill="#fff"/><polygon points="252.86 83.69 237.82 83.69 237.82 90.88 242.84 90.88 242.84 121.44 239.76 121.44 239.76 128.66 256.65 128.66 256.65 121.76 252.86 121.76 252.86 83.69" fill="#fff"/><polygon points="271.93 121.44 263.54 111.5 272.79 103.65 275.89 103.65 275.89 97.3 256.95 97.3 256.95 103.35 263.54 103.35 252.92 112.1 266.29 128.66 276.25 128.66 276.25 121.44 271.93 121.44" fill="#fff"/><path d="M238.12,128.66v-7.22h-3.57v-11.61c0-4.51-1.12-7.85-3.36-10.01s-5.98-3.24-11.23-3.24c-7.66,0-12.71,2.47-15.16,7.4l8.06,1.46c1.67-1.67,3.59-2.51,5.76-2.51,1.99,0,3.48.48,4.48,1.43.99.96,1.49,2.23,1.49,3.82v2.51c-1.37-.7-2.58-1.19-3.62-1.48s-2.23-.43-3.57-.43c-3.84,0-6.92.96-9.23,2.88-2.32,1.92-3.48,4.47-3.48,7.65,0,3,1.03,5.39,3.1,7.16s4.82,2.66,8.26,2.66c2.84,0,5.69-.97,8.53-2.92v2.45h13.54ZM218.29,122.9c-2.69,0-4.03-1.4-4.03-4.21,0-1.25.38-2.22,1.13-2.89s1.85-1.01,3.28-1.01c1.79,0,3.76.7,5.91,2.09v2.8c-2.41,2.15-4.5,3.22-6.29,3.22h0Z" fill="#fff"/><path d="M114.26,0h81.07c19.06,0,34.51,15.45,34.51,34.51h0c0,19.06-15.45,34.51-34.51,34.51h-81.07c-19.06,0-34.51-15.45-34.51-34.51h0C79.75,15.45,95.2,0,114.26,0Z" fill="#fff"/><path d="M116.35,5.25c-16.07,0-29.1,13.03-29.1,29.1s13.03,29.1,29.1,29.1,29.1-13.03,29.1-29.1-13.03-29.1-29.1-29.1ZM116.35,56.49c-12.23,0-22.15-9.92-22.15-22.15s9.92-22.15,22.15-22.15,22.15,9.92,22.15,22.15-9.92,22.15-22.15,22.15Z" fill="#7aa47c"/><circle cx="116.33" cy="34.35" r="22.15" fill="#a7dba7"/><circle cx="109.29" cy="26.98" r="3.17" fill="#7aa47c"/><circle cx="123.36" cy="26.98" r="3.17" fill="#7aa47c"/><path d="M127.32,39.48c-2.17,3.29-6.32,5.52-11.09,5.52s-8.68-2.1-10.9-5.23" fill="none" stroke="#7aa47c" stroke-linecap="round" stroke-miterlimit="10" stroke-width="6"/><path d="M193.48,5.25c-16.07,0-29.1,13.03-29.1,29.1s13.03,29.1,29.1,29.1,29.1-13.03,29.1-29.1-13.03-29.1-29.1-29.1h0ZM193.48,56.49c-12.23,0-22.15-9.92-22.15-22.15s9.92-22.15,22.15-22.15,22.15,9.92,22.15,22.15-9.92,22.15-22.15,22.15h0Z" fill="#7aa47c"/><circle cx="193.45" cy="34.35" r="22.15" fill="#a7dba7"/><circle cx="186.42" cy="26.98" r="3.17" fill="#7aa47c"/><circle cx="200.49" cy="26.98" r="3.17" fill="#7aa47c"/><path d="M204.45,39.48c-2.17,3.29-6.32,5.52-11.09,5.52s-8.68-2.1-10.9-5.23" fill="none" stroke="#7aa47c" stroke-linecap="round" stroke-miterlimit="10" stroke-width="6"/></svg>